<?xml version="1.0" encoding="UTF-8" standalone="no"?>
<!-- Created with Inkscape (http://www.inkscape.org/) -->

<svg
   xmlns:dc="http://purl.org/dc/elements/1.1/"
   xmlns:cc="http://creativecommons.org/ns#"
   xmlns:rdf="http://www.w3.org/1999/02/22-rdf-syntax-ns#"
   xmlns:svg="http://www.w3.org/2000/svg"
   xmlns="http://www.w3.org/2000/svg"
   xmlns:sodipodi="http://sodipodi.sourceforge.net/DTD/sodipodi-0.dtd"
   xmlns:inkscape="http://www.inkscape.org/namespaces/inkscape"
   width="244"
   height="104"
   id="svg5733"
   version="1.1"
   inkscape:version="0.48.5 r10040"
   sodipodi:docname="New document 4">
  <defs
     id="defs5735" />
  <sodipodi:namedview
     id="base"
     pagecolor="#ffffff"
     bordercolor="#666666"
     borderopacity="1.0"
     inkscape:pageopacity="0.0"
     inkscape:pageshadow="2"
     inkscape:zoom="1.979899"
     inkscape:cx="189.30197"
     inkscape:cy="87.914822"
     inkscape:document-units="px"
     inkscape:current-layer="layer1"
     showgrid="false"
     fit-margin-top="0"
     fit-margin-left="0"
     fit-margin-right="0"
     fit-margin-bottom="0"
     inkscape:window-width="1920"
     inkscape:window-height="1027"
     inkscape:window-x="-8"
     inkscape:window-y="-8"
     inkscape:window-maximized="1" />
  <metadata
     id="metadata5738">
    <rdf:RDF>
      <cc:Work
         rdf:about="">
        <dc:format>image/svg+xml</dc:format>
        <dc:type
           rdf:resource="http://purl.org/dc/dcmitype/StillImage" />
        <dc:title></dc:title>
      </cc:Work>
    </rdf:RDF>
  </metadata>
  <g
     inkscape:label="Layer 1"
     inkscape:groupmode="layer"
     id="layer1"
     transform="translate(392.94934,-407.93057)">
    <rect
       style="fill:none;stroke:none"
       id="rect5772"
       width="122"
       height="104"
       x="-392.94934"
       y="407.93057" />
    <rect
       y="407.93057"
       x="-270.94934"
       height="104"
       width="122"
       id="rect5774"
       style="fill:none;stroke:none" />
    <g
       id="g5768"
       transform="translate(-208.29152,0)">
      <rect
         ry="8.2346821"
         y="408.41034"
         x="-154.63591"
         height="103.12959"
         width="61.956177"
         id="rect6273"
         style="fill:#333333;fill-opacity:1;stroke:none" />
      <rect
         ry="0"
         y="428.60492"
         x="-144.44035"
         height="62.740437"
         width="41.565365"
         id="rect6275"
         style="fill:#4d4d4d;fill-opacity:1;stroke:none" />
    </g>
    <g
       transform="matrix(0.57705761,0,0,0.57705761,-2709.2336,952.91114)"
       id="g4890">
      <rect
         style="fill:#333333;fill-opacity:1;stroke:none"
         id="rect4892"
         width="107.36567"
         height="178.71628"
         x="4279.2603"
         y="-943.5813"
         ry="14.270121" />
      <rect
         style="fill:#ffffff;fill-opacity:1;stroke:none"
         id="rect4894"
         width="72.029839"
         height="108.72474"
         x="4296.9282"
         y="-908.58557"
         ry="0" />
      <path
         style="fill:#333333;stroke:none"
         d="m 4246.7549,-902.29916 20.1309,14.15891 -20.1309,14.1589 20.1309,14.15899 -20.1309,14.15891 20.1309,14.15899 -30.1963,21.2384 -10.0654,-7.0795 20.1308,-14.1589 -20.1308,-14.15899 20.1308,-14.15891 -20.1308,-14.15899 20.1308,-14.1589 -20.1308,-14.15891 10.0654,-7.07949 z"
         id="path4896"
         inkscape:connector-curvature="0"
         sodipodi:nodetypes="cccccccccccccccc" />
      <path
         sodipodi:nodetypes="cccccccccccccccc"
         inkscape:connector-curvature="0"
         id="path4898"
         d="m 4415.4105,-902.29916 -20.1309,14.15891 20.1309,14.1589 -20.1309,14.15899 20.1309,14.15891 -20.1309,14.15899 30.1963,21.2384 10.0654,-7.0795 -20.1308,-14.1589 20.1308,-14.15899 -20.1308,-14.15891 20.1308,-14.15899 -20.1308,-14.1589 20.1308,-14.15891 -10.0654,-7.07949 z"
         style="fill:#333333;stroke:none" />
    </g>
  </g>
</svg>
